<svg xmlns="http://www.w3.org/2000/svg" width="1600" height="655" viewBox="0 0 1600 655"><defs><linearGradient id="bg" x1="0" y1="0" x2="1" y2="1"><stop stop-color="#050c12"/><stop offset=".6" stop-color="#07131b"/><stop offset="1" stop-color="#090f15"/></linearGradient><pattern id="grid" width="42" height="42" patternUnits="userSpaceOnUse"><path d="M42 0H0V42" fill="none" stroke="#0d2430"/></pattern></defs><rect width="1600" height="655" rx="28" fill="url(#bg)"/><rect width="1600" height="655" rx="28" fill="url(#grid)" opacity=".3"/><rect x="1" y="1" width="1598" height="653" rx="27" fill="none" stroke="#1d5266"/><text x="36" y="44" fill="#16d9ff" font-family="monospace" font-size="15">› actual_surfaces</text><text x="260" y="44" fill="#879eaa" font-family="Arial" font-size="12">Campaign operations, user management and admin surfaces.</text>
<g transform="translate(34 70)"><rect width="1090" height="545" rx="18" fill="#08141d" stroke="#234a5a"/><rect width="1090" height="46" rx="18" fill="#0d1c27"/><text x="20" y="29" fill="#f4f8fb" font-family="Arial" font-size="15" font-weight="700">Campaign Platform</text><rect x="14" y="62" width="165" height="465" rx="12" fill="#091720" stroke="#1c3947"/><text x="34" y="94" fill="#16d9ff" font-family="Arial" font-size="10.5">Dashboard</text><text x="34" y="131" fill="#829aa8" font-family="Arial" font-size="10.5">Campaigns</text><text x="34" y="168" fill="#829aa8" font-family="Arial" font-size="10.5">Users</text><text x="34" y="205" fill="#829aa8" font-family="Arial" font-size="10.5">Imports</text><text x="34" y="242" fill="#829aa8" font-family="Arial" font-size="10.5">Validation</text><text x="34" y="279" fill="#829aa8" font-family="Arial" font-size="10.5">Webhooks</text><text x="34" y="316" fill="#829aa8" font-family="Arial" font-size="10.5">Admin</text><text x="34" y="353" fill="#829aa8" font-family="Arial" font-size="10.5">Health</text><g transform="translate(200 78)"><rect width="190" height="90" rx="15" fill="#08141d" stroke="#1d5266"/><rect width="4" height="90" rx="2" fill="#2fe3b0"/><text x="18" y="25" fill="#2fe3b0" font-family="monospace" font-size="9">USERS</text><text x="18" y="51" fill="#f4f8fb" font-family="Arial" font-size="15" font-weight="700">125k</text><text x="18" y="76" fill="#879eaa" font-family="Arial" font-size="10.5">managed records</text></g><g transform="translate(405 78)"><rect width="190" height="90" rx="15" fill="#08141d" stroke="#1d5266"/><rect width="4" height="90" rx="2" fill="#8b5cf6"/><text x="18" y="25" fill="#8b5cf6" font-family="monospace" font-size="9">CAMPAIGNS</text><text x="18" y="51" fill="#f4f8fb" font-family="Arial" font-size="15" font-weight="700">24</text><text x="18" y="76" fill="#879eaa" font-family="Arial" font-size="10.5">configured sends</text></g><g transform="translate(610 78)"><rect width="190" height="90" rx="15" fill="#08141d" stroke="#1d5266"/><rect width="4" height="90" rx="2" fill="#16d9ff"/><text x="18" y="25" fill="#16d9ff" font-family="monospace" font-size="9">IMPORTS</text><text x="18" y="51" fill="#f4f8fb" font-family="Arial" font-size="15" font-weight="700">7</text><text x="18" y="76" fill="#879eaa" font-family="Arial" font-size="10.5">processing jobs</text></g><g transform="translate(815 78)"><rect width="245" height="90" rx="15" fill="#08141d" stroke="#1d5266"/><rect width="4" height="90" rx="2" fill="#2fe3b0"/><text x="18" y="25" fill="#2fe3b0" font-family="monospace" font-size="9">SYSTEM</text><text x="18" y="51" fill="#f4f8fb" font-family="Arial" font-size="15" font-weight="700">ready</text><text x="18" y="76" fill="#879eaa" font-family="Arial" font-size="10.5">liveness + readiness</text></g><rect x="200" y="192" width="510" height="175" rx="12" fill="#091720" stroke="#1c3947"/><text x="218" y="218" fill="#dbe6eb" font-family="Arial" font-size="12" font-weight="700">Campaign activity</text><path d="M230 330 L290 306 L350 314 L410 278 L470 288 L530 250 L590 260 L675 222" fill="none" stroke="#16d9ff" stroke-width="3"/><path d="M230 344 L290 332 L350 338 L410 316 L470 320 L530 296 L590 300 L675 280" fill="none" stroke="#d65bff" stroke-width="3"/><rect x="730" y="192" width="330" height="175" rx="12" fill="#091720" stroke="#1c3947"/><text x="748" y="218" fill="#dbe6eb" font-family="Arial" font-size="12" font-weight="700">Operational attention</text><circle cx="752" cy="254" r="4" fill="#ffb547"/><text x="767" y="258" fill="#879eaa" font-family="monospace" font-size="8.5">provider callback rejected</text><circle cx="752" cy="286" r="4" fill="#ff6b6b"/><text x="767" y="290" fill="#879eaa" font-family="monospace" font-size="8.5">import validation failed</text><circle cx="752" cy="318" r="4" fill="#ff6b6b"/><text x="767" y="322" fill="#879eaa" font-family="monospace" font-size="8.5">readiness dependency unavailable</text><circle cx="752" cy="350" r="4" fill="#2fe3b0"/><text x="767" y="354" fill="#879eaa" font-family="monospace" font-size="8.5">unsubscribe signature verified</text><rect x="200" y="388" width="860" height="118" rx="12" fill="#091720" stroke="#1c3947"/><text x="218" y="416" fill="#dbe6eb" font-family="Arial" font-size="12" font-weight="700">Recent operations</text><text x="220" y="445" fill="#849ba8" font-family="monospace" font-size="8.5">campaign created · operator/admin</text><text x="220" y="463" fill="#849ba8" font-family="monospace" font-size="8.5">user import · validated before write</text><text x="220" y="481" fill="#849ba8" font-family="monospace" font-size="8.5">webhook received · provider secret checked</text><text x="220" y="499" fill="#849ba8" font-family="monospace" font-size="8.5">unsubscribe token · signature verified</text></g>
<g transform="translate(1150 70)"><g transform="translate(0 0)"><rect width="415" height="106" rx="15" fill="#08141d" stroke="#1d5266"/><rect width="4" height="106" rx="2" fill="#16d9ff"/><text x="18" y="25" fill="#16d9ff" font-family="monospace" font-size="9">EXPRESS API</text><text x="18" y="51" fill="#f4f8fb" font-family="Arial" font-size="15" font-weight="700">Auth + users + campaigns</text><text x="18" y="76" fill="#879eaa" font-family="Arial" font-size="10.5">admin · imports · validation · webhooks</text></g><g transform="translate(0 122)"><rect width="415" height="106" rx="15" fill="#08141d" stroke="#1d5266"/><rect width="4" height="106" rx="2" fill="#2fe3b0"/><text x="18" y="25" fill="#2fe3b0" font-family="monospace" font-size="9">PUBLIC UNSUBSCRIBE</text><text x="18" y="51" fill="#f4f8fb" font-family="Arial" font-size="15" font-weight="700">Signed token verification</text><text x="18" y="76" fill="#879eaa" font-family="Arial" font-size="10.5">public flow without exposing admin state</text></g><g transform="translate(0 244)"><rect width="415" height="106" rx="15" fill="#08141d" stroke="#1d5266"/><rect width="4" height="106" rx="2" fill="#ffb547"/><text x="18" y="25" fill="#ffb547" font-family="monospace" font-size="9">ADMIN BOUNDARY</text><text x="18" y="51" fill="#f4f8fb" font-family="Arial" font-size="15" font-weight="700">Auth + admin role middleware</text><text x="18" y="76" fill="#879eaa" font-family="Arial" font-size="10.5">privileged actions never share public routes</text></g><g transform="translate(0 366)"><rect width="415" height="106" rx="15" fill="#08141d" stroke="#1d5266"/><rect width="4" height="106" rx="2" fill="#55b6ff"/><text x="18" y="25" fill="#55b6ff" font-family="monospace" font-size="9">HEALTH MODEL</text><text x="18" y="51" fill="#f4f8fb" font-family="Arial" font-size="15" font-weight="700">live ≠ ready</text><text x="18" y="76" fill="#879eaa" font-family="Arial" font-size="10.5">process liveness separated from dependency readiness</text></g><g transform="translate(0 488)"><rect width="415" height="106" rx="15" fill="#08141d" stroke="#1d5266"/><rect width="4" height="106" rx="2" fill="#8b5cf6"/><text x="18" y="25" fill="#8b5cf6" font-family="monospace" font-size="9">LOGGING</text><text x="18" y="51" fill="#f4f8fb" font-family="Arial" font-size="15" font-weight="700">Structured redaction</text><text x="18" y="76" fill="#879eaa" font-family="Arial" font-size="10.5">sensitive fields and query parameters stay out of logs</text></g></g></svg>