<svg xmlns="http://www.w3.org/2000/svg" width="1200" height="430" viewBox="0 0 1200 430">
<defs><linearGradient id="a"><stop stop-color="#f85149"/><stop offset="1" stop-color="#a371f7"/></linearGradient></defs>
<rect width="1200" height="100%" rx="26" fill="#0d1117" stroke="#30363d"/>
<text x="65" y="62" fill="#f0f6fc" font-family="Arial" font-size="24" font-weight="700">Backend layers</text>
<rect x="65" y="80" width="260" height="4" rx="2" fill="url(#a)"/>
<g><rect x="65" y="120" width="320" height="118" rx="18" fill="#111827" stroke="#30363d"/><rect x="65" y="120" width="7" height="118" rx="3.5" fill="#f85149"/><text x="93" y="162" fill="#f0f6fc" font-family="Arial" font-size="19" font-weight="700">Ingress</text><text x="93" y="198" fill="#8b949e" font-family="monospace" font-size="12">REST routes</text><text x="93" y="222" fill="#8b949e" font-family="monospace" font-size="12">webhook boundary</text></g><g><rect x="435" y="120" width="320" height="118" rx="18" fill="#111827" stroke="#30363d"/><rect x="435" y="120" width="7" height="118" rx="3.5" fill="#a371f7"/><text x="463" y="162" fill="#f0f6fc" font-family="Arial" font-size="19" font-weight="700">Security</text><text x="463" y="198" fill="#8b949e" font-family="monospace" font-size="12">auth / roles</text><text x="463" y="222" fill="#8b949e" font-family="monospace" font-size="12">provider secrets</text></g><g><rect x="805" y="120" width="320" height="118" rx="18" fill="#111827" stroke="#30363d"/><rect x="805" y="120" width="7" height="118" rx="3.5" fill="#f85149"/><text x="833" y="162" fill="#f0f6fc" font-family="Arial" font-size="19" font-weight="700">Services</text><text x="833" y="198" fill="#8b949e" font-family="monospace" font-size="12">campaign + user ops</text><text x="833" y="222" fill="#8b949e" font-family="monospace" font-size="12">validation</text></g><g><rect x="65" y="270" width="320" height="118" rx="18" fill="#111827" stroke="#30363d"/><rect x="65" y="270" width="7" height="118" rx="3.5" fill="#a371f7"/><text x="93" y="312" fill="#f0f6fc" font-family="Arial" font-size="19" font-weight="700">Data</text><text x="93" y="348" fill="#8b949e" font-family="monospace" font-size="12">PostgreSQL</text><text x="93" y="372" fill="#8b949e" font-family="monospace" font-size="12">migrations + indexes</text></g><g><rect x="435" y="270" width="320" height="118" rx="18" fill="#111827" stroke="#30363d"/><rect x="435" y="270" width="7" height="118" rx="3.5" fill="#f85149"/><text x="463" y="312" fill="#f0f6fc" font-family="Arial" font-size="19" font-weight="700">Operations</text><text x="463" y="348" fill="#8b949e" font-family="monospace" font-size="12">health / backup</text><text x="463" y="372" fill="#8b949e" font-family="monospace" font-size="12">maintenance jobs</text></g><g><rect x="805" y="270" width="320" height="118" rx="18" fill="#111827" stroke="#30363d"/><rect x="805" y="270" width="7" height="118" rx="3.5" fill="#a371f7"/><text x="833" y="312" fill="#f0f6fc" font-family="Arial" font-size="19" font-weight="700">Quality</text><text x="833" y="348" fill="#8b949e" font-family="monospace" font-size="12">types + tests</text><text x="833" y="372" fill="#8b949e" font-family="monospace" font-size="12">Playwright E2E</text></g>
</svg>