<svg xmlns="http://www.w3.org/2000/svg" width="1600" height="440" viewBox="0 0 1600 440"><defs><linearGradient id="bg" x1="0" y1="0" x2="1" y2="1"><stop stop-color="#050c12"/><stop offset=".6" stop-color="#07131b"/><stop offset="1" stop-color="#090f15"/></linearGradient><pattern id="grid" width="42" height="42" patternUnits="userSpaceOnUse"><path d="M42 0H0V42" fill="none" stroke="#0d2430"/></pattern></defs><rect width="1600" height="440" rx="28" fill="url(#bg)"/><rect width="1600" height="440" rx="28" fill="url(#grid)" opacity=".3"/><rect x="1" y="1" width="1598" height="438" rx="27" fill="none" stroke="#1d5266"/><text x="36" y="44" fill="#16d9ff" font-family="monospace" font-size="15">› backend_surface</text><text x="260" y="44" fill="#879eaa" font-family="Arial" font-size="12">The platform is mostly backend and operational tooling.</text><g transform="translate(35 78)"><rect width="365" height="125" rx="15" fill="#08141d" stroke="#1d5266"/><rect width="4" height="125" rx="2" fill="#2fe3b0"/><text x="18" y="25" fill="#2fe3b0" font-family="monospace" font-size="9">USERS</text><text x="18" y="51" fill="#f4f8fb" font-family="Arial" font-size="15" font-weight="700">User operations</text><text x="18" y="76" fill="#879eaa" font-family="Arial" font-size="10.5">imports · validation · suppression · classification</text></g><g transform="translate(416 78)"><rect width="365" height="125" rx="15" fill="#08141d" stroke="#1d5266"/><rect width="4" height="125" rx="2" fill="#8b5cf6"/><text x="18" y="25" fill="#8b5cf6" font-family="monospace" font-size="9">CAMPAIGNS</text><text x="18" y="51" fill="#f4f8fb" font-family="Arial" font-size="15" font-weight="700">Campaign control</text><text x="18" y="76" fill="#879eaa" font-family="Arial" font-size="10.5">create · configure · validate · send</text></g><g transform="translate(797 78)"><rect width="365" height="125" rx="15" fill="#08141d" stroke="#1d5266"/><rect width="4" height="125" rx="2" fill="#ffb547"/><text x="18" y="25" fill="#ffb547" font-family="monospace" font-size="9">WEBHOOKS</text><text x="18" y="51" fill="#f4f8fb" font-family="Arial" font-size="15" font-weight="700">Provider callbacks</text><text x="18" y="76" fill="#879eaa" font-family="Arial" font-size="10.5">secret headers · explicit verification</text></g><g transform="translate(1178 78)"><rect width="387" height="125" rx="15" fill="#08141d" stroke="#1d5266"/><rect width="4" height="125" rx="2" fill="#55b6ff"/><text x="18" y="25" fill="#55b6ff" font-family="monospace" font-size="9">UNSUBSCRIBE</text><text x="18" y="51" fill="#f4f8fb" font-family="Arial" font-size="15" font-weight="700">Signed public flow</text><text x="18" y="76" fill="#879eaa" font-family="Arial" font-size="10.5">token verification · safe public endpoint</text></g><g transform="translate(35 223)"><rect width="365" height="125" rx="15" fill="#08141d" stroke="#1d5266"/><rect width="4" height="125" rx="2" fill="#16d9ff"/><text x="18" y="25" fill="#16d9ff" font-family="monospace" font-size="9">DATABASE</text><text x="18" y="51" fill="#f4f8fb" font-family="Arial" font-size="15" font-weight="700">PostgreSQL v2 paths</text><text x="18" y="76" fill="#879eaa" font-family="Arial" font-size="10.5">migrations · indexes · backups · views</text></g><g transform="translate(416 223)"><rect width="365" height="125" rx="15" fill="#08141d" stroke="#1d5266"/><rect width="4" height="125" rx="2" fill="#2fe3b0"/><text x="18" y="25" fill="#2fe3b0" font-family="monospace" font-size="9">SECURITY</text><text x="18" y="51" fill="#f4f8fb" font-family="Arial" font-size="15" font-weight="700">Auth + roles + secrets</text><text x="18" y="76" fill="#879eaa" font-family="Arial" font-size="10.5">Helmet · rate limit · redaction · CI secret scan</text></g><g transform="translate(797 223)"><rect width="365" height="125" rx="15" fill="#08141d" stroke="#1d5266"/><rect width="4" height="125" rx="2" fill="#55b6ff"/><text x="18" y="25" fill="#55b6ff" font-family="monospace" font-size="9">TESTING</text><text x="18" y="51" fill="#f4f8fb" font-family="Arial" font-size="15" font-weight="700">Unit + frontend + E2E</text><text x="18" y="76" fill="#879eaa" font-family="Arial" font-size="10.5">Jest · Vitest · Playwright</text></g><g transform="translate(1178 223)"><rect width="387" height="125" rx="15" fill="#08141d" stroke="#1d5266"/><rect width="4" height="125" rx="2" fill="#ff8a3d"/><text x="18" y="25" fill="#ff8a3d" font-family="monospace" font-size="9">OPERATIONS</text><text x="18" y="51" fill="#f4f8fb" font-family="Arial" font-size="15" font-weight="700">Docker-first runtime</text><text x="18" y="76" fill="#879eaa" font-family="Arial" font-size="10.5">dumb-init · health endpoints · production bind</text></g></svg>