<svg xmlns="http://www.w3.org/2000/svg" width="1600" height="305" viewBox="0 0 1600 305"><defs><linearGradient id="bg" x1="0" y1="0" x2="1" y2="1"><stop stop-color="#050c12"/><stop offset=".6" stop-color="#07131b"/><stop offset="1" stop-color="#090f15"/></linearGradient><pattern id="grid" width="42" height="42" patternUnits="userSpaceOnUse"><path d="M42 0H0V42" fill="none" stroke="#0d2430"/></pattern></defs><rect width="1600" height="305" rx="28" fill="url(#bg)"/><rect width="1600" height="305" rx="28" fill="url(#grid)" opacity=".3"/><rect x="1" y="1" width="1598" height="303" rx="27" fill="none" stroke="#1d5266"/><text x="36" y="44" fill="#16d9ff" font-family="monospace" font-size="15">› request_lifecycle</text><text x="260" y="44" fill="#879eaa" font-family="Arial" font-size="12">A request earns trust one boundary at a time.</text>
<g transform="translate(45 105)"><rect width="190" height="76" rx="13" fill="#091720" stroke="#16d9ff" stroke-opacity=".65"/><text x="95" y="30" text-anchor="middle" fill="#16d9ff" font-family="monospace" font-size="9">REQUEST</text><text x="95" y="54" text-anchor="middle" fill="#ccd9df" font-family="Arial" font-size="10.5">public / auth / provider</text></g><g transform="translate(275 105)"><rect width="190" height="76" rx="13" fill="#091720" stroke="#2fe3b0" stroke-opacity=".65"/><text x="95" y="30" text-anchor="middle" fill="#2fe3b0" font-family="monospace" font-size="9">BOUNDARY</text><text x="95" y="54" text-anchor="middle" fill="#ccd9df" font-family="Arial" font-size="10.5">auth · secret · token</text></g><g transform="translate(505 105)"><rect width="190" height="76" rx="13" fill="#091720" stroke="#8b5cf6" stroke-opacity=".65"/><text x="95" y="30" text-anchor="middle" fill="#8b5cf6" font-family="monospace" font-size="9">VALIDATE</text><text x="95" y="54" text-anchor="middle" fill="#ccd9df" font-family="Arial" font-size="10.5">schema + policy</text></g><g transform="translate(735 105)"><rect width="190" height="76" rx="13" fill="#091720" stroke="#16d9ff" stroke-opacity=".65"/><text x="95" y="30" text-anchor="middle" fill="#16d9ff" font-family="monospace" font-size="9">SERVICE</text><text x="95" y="54" text-anchor="middle" fill="#ccd9df" font-family="Arial" font-size="10.5">business operation</text></g><g transform="translate(965 105)"><rect width="190" height="76" rx="13" fill="#091720" stroke="#2fe3b0" stroke-opacity=".65"/><text x="95" y="30" text-anchor="middle" fill="#2fe3b0" font-family="monospace" font-size="9">PERSIST</text><text x="95" y="54" text-anchor="middle" fill="#ccd9df" font-family="Arial" font-size="10.5">PostgreSQL</text></g><g transform="translate(1195 105)"><rect width="190" height="76" rx="13" fill="#091720" stroke="#55b6ff" stroke-opacity=".65"/><text x="95" y="30" text-anchor="middle" fill="#55b6ff" font-family="monospace" font-size="9">EMIT</text><text x="95" y="54" text-anchor="middle" fill="#ccd9df" font-family="Arial" font-size="10.5">response / event</text></g><g transform="translate(1425 105)"><rect width="130" height="76" rx="13" fill="#091720" stroke="#16d9ff" stroke-opacity=".65"/><text x="65" y="30" text-anchor="middle" fill="#16d9ff" font-family="monospace" font-size="9">LOG</text><text x="65" y="54" text-anchor="middle" fill="#ccd9df" font-family="Arial" font-size="10.5">redacted</text></g><path d="M235 143H275 M465 143H505 M695 143H735 M925 143H965 M1155 143H1195 M1385 143H1425" stroke="#2c7087" stroke-width="2"/></svg>